<svg width="46" height="46" viewBox="0 0 46 46" fill="none" xmlns="http://www.w3.org/2000/svg">
<path d="M22.9611 0.847656C11.0498 0.847656 1.39423 10.7655 1.39423 23.0004C1.39423 35.2353 11.0498 45.1532 22.9611 45.1532C34.8725 45.1532 44.5281 35.2353 44.5281 23.0004C44.5281 10.7655 34.8725 0.847656 22.9611 0.847656ZM16.7072 32.9668C16.7072 33.5418 16.2174 34.0117 15.6191 34.0117H12.7493C12.1501 34.0117 11.6603 33.5418 11.6603 32.9668V24.0013C11.6603 23.4272 12.1501 22.9564 12.7493 22.9564H15.6191C16.2174 22.9564 16.7072 23.4272 16.7072 24.0013V32.9668ZM33.5447 27.1961C33.3776 27.3744 33.2523 27.5896 33.1783 27.8251C33.1044 28.0607 33.0837 28.3105 33.1179 28.5555C33.1984 29.1278 33.1371 29.9031 32.4601 30.5266C32.2571 30.7189 32.105 30.961 32.018 31.2302C31.9309 31.4994 31.9118 31.7868 31.9624 32.0657C32.1374 33.1438 31.6003 34.6711 26.9435 34.4456L20.882 34.2974C20.8296 34.2974 20.7779 34.292 20.7255 34.2857C20.226 34.2219 17.6151 33.8365 17.8128 32.6452L17.8023 24.3077C17.8022 24.0884 17.8445 23.8713 17.9265 23.6689L21.35 16.7841C21.4016 16.6801 21.4286 16.5649 21.4287 16.4481V13.22C21.4264 12.9325 21.4979 12.6495 21.6361 12.3994C21.7744 12.1494 21.9743 11.9413 22.2159 11.796C22.7197 11.5004 23.4238 11.3468 24.2041 11.9362C25.7374 13.1041 25.7741 13.733 25.7741 13.733C25.7741 13.733 26.4677 15.8345 26.1756 17.7473C26.139 17.9842 26.1529 18.2264 26.2163 18.4572C26.2798 18.688 26.3912 18.902 26.543 19.0843C26.6948 19.2666 26.8832 19.4128 27.0954 19.513C27.3076 19.6132 27.5384 19.6649 27.7719 19.6645H31.2601C31.3165 19.6644 31.3728 19.6674 31.4289 19.6735C31.9616 19.7337 34.3844 20.1614 33.5325 22.9537C33.4569 23.2015 33.4412 23.4644 33.487 23.7198C33.5327 23.9751 33.6384 24.2152 33.7949 24.4191C34.2611 25.0183 34.6512 26.0237 33.5447 27.1961Z" fill="#2E99D6"/>
<path d="M33.5325 22.9527C34.3844 20.1604 31.9581 19.7327 31.4289 19.6725C31.3728 19.6664 31.3165 19.6634 31.2601 19.6635H27.7719C27.5389 19.6634 27.3088 19.6115 27.0972 19.5114C26.8856 19.4112 26.6977 19.2652 26.5463 19.0834C26.3949 18.9016 26.2836 18.6883 26.22 18.4581C26.1565 18.2279 26.1422 17.9863 26.1782 17.7499C26.4703 15.8371 25.7767 13.7356 25.7767 13.7356C25.7767 13.7356 25.74 13.0987 24.2067 11.9388C23.4265 11.3476 22.7197 11.503 22.2185 11.7986C21.977 11.9439 21.777 12.152 21.6388 12.402C21.5005 12.6521 21.429 12.9351 21.4313 13.2226V16.4507C21.4312 16.5675 21.4043 16.6827 21.3526 16.7867L17.9291 23.6715C17.8471 23.8739 17.8049 24.091 17.8049 24.3103L17.8154 32.6478C17.6177 33.8355 20.2286 34.2245 20.7281 34.2883C20.7806 34.2946 20.8322 34.2982 20.8846 34.3L26.9462 34.4482C31.6029 34.6701 32.1426 33.1419 31.9651 32.0683C31.9144 31.7894 31.9335 31.502 32.0206 31.2328C32.1076 30.9636 32.2598 30.7215 32.4628 30.5292C33.1398 29.9093 33.201 29.1304 33.1205 28.5581C33.0854 28.3127 33.1054 28.0623 33.1789 27.8261C33.2524 27.5899 33.3776 27.3741 33.5447 27.1951C34.6494 26.0227 34.2593 25.0173 33.7966 24.4181C33.6398 24.2143 33.5338 23.9744 33.4878 23.719C33.4417 23.4636 33.4571 23.2006 33.5325 22.9527Z" fill="white"/>
<path d="M15.6191 22.9561H12.7493C12.1501 22.9561 11.6603 23.4268 11.6603 24.0009V32.9664C11.6603 33.5415 12.1501 34.0113 12.7493 34.0113H15.6191C16.2173 34.0113 16.7072 33.5415 16.7072 32.9664V24.0009C16.7072 23.4268 16.2173 22.9561 15.6191 22.9561Z" fill="white"/>
</svg>
